<svg id="Layer_1" data-name="Layer 1" xmlns="http://www.w3.org/2000/svg" viewBox="0 0 92.78 21.73"><defs><style>.cls-1{fill:#f9f9f9;}</style></defs><title>year_logo</title><path class="cls-1" d="M365.37,308.8V295.52H376v-2.41H365.37v-6h13.28L384,291.9v8.45H373.33v2.42H384v6Z" transform="translate(-365.37 -287.07)"/><path class="cls-1" d="M388.33,308.8V291.9l5.31-4.83h15.93V308.8Zm13.28-6v-9.66H396.3v9.66Z" transform="translate(-365.37 -287.07)"/><path class="cls-1" d="M413.94,308.8V295.52h10.62v-2.41H413.94v-6h13.28l5.32,4.83v8.45H421.91v2.42h10.63v6Z" transform="translate(-365.37 -287.07)"/><path class="cls-1" d="M436.91,308.8V291.9l5.3-4.83h15.94V308.8Zm13.28-6v-9.66h-5.32v9.66Z" transform="translate(-365.37 -287.07)"/></svg>