<svg id="Layer_1" data-name="Layer 1" xmlns="http://www.w3.org/2000/svg" viewBox="0 0 1650 1092.75"><defs><style>.cls-1{fill:#2d3c80;}.cls-2{fill:#5978ff;}.cls-3{fill:#506ce6;}</style></defs><title>background</title><rect class="cls-1" x="-289.53" y="168.8" width="638.9" height="178.68" transform="translate(-139.17 60.8) rotate(-33.98)"/><rect class="cls-2" x="65.69" y="-70.61" width="638.9" height="178.68" transform="translate(55.3 218.45) rotate(-33.98)"/><rect class="cls-3" x="319.01" y="-241.34" width="638.9" height="178.68" transform="translate(193.98 330.88) rotate(-33.98)"/><rect class="cls-1" x="-232.26" y="269.27" width="762.56" height="178.68" transform="translate(-174.98 144.52) rotate(-33.98)"/><rect class="cls-2" x="191.71" y="-16.48" width="762.56" height="178.68" transform="translate(57.12 332.68) rotate(-33.98)"/><rect class="cls-3" x="494.07" y="-220.26" width="762.56" height="178.68" transform="translate(222.64 466.87) rotate(-33.98)"/><rect class="cls-1" x="-83.85" y="332.98" width="638.9" height="178.68" transform="translate(-195.8 203.79) rotate(-33.98)"/><rect class="cls-2" x="271.37" y="93.57" width="638.9" height="178.68" transform="matrix(0.83, -0.56, 0.56, 0.83, -1.34, 361.44)"/><rect class="cls-3" x="524.69" y="-77.17" width="638.9" height="178.68" transform="translate(137.34 473.86) rotate(-33.98)"/><rect class="cls-1" x="-488.75" y="142.88" width="638.9" height="178.68" transform="translate(-158.69 -54.97) rotate(-33.98)"/><rect class="cls-2" x="-133.53" y="-96.53" width="638.9" height="178.68" transform="translate(35.77 102.68) rotate(-33.98)"/><rect class="cls-3" x="119.8" y="-267.27" width="638.9" height="178.68" transform="translate(174.45 215.11) rotate(-33.98)"/><rect class="cls-2" x="-333.88" y="-50.82" width="638.9" height="178.68" transform="translate(-23.99 -1.49) rotate(-33.98)"/><rect class="cls-3" x="-80.56" y="-221.55" width="638.9" height="178.68" transform="translate(114.69 110.94) rotate(-33.98)"/><rect class="cls-2" x="-478.68" y="-162.13" width="638.9" height="178.68" transform="translate(13.49 -101.42) rotate(-33.98)"/><rect class="cls-3" x="-225.36" y="-332.87" width="638.9" height="178.68" transform="matrix(0.83, -0.56, 0.56, 0.83, 152.17, 11)"/><rect class="cls-1" x="623.65" y="982.2" width="793.94" height="178.68" transform="translate(-424.59 753.39) rotate(-33.98)"/><rect class="cls-2" x="1065.07" y="684.69" width="793.94" height="178.68" transform="translate(-182.94 949.3) rotate(-33.98)"/><rect class="cls-3" x="1379.87" y="472.52" width="793.94" height="178.68" transform="translate(-10.61 1089) rotate(-33.98)"/><rect class="cls-1" x="953.19" y="1027.45" width="639.86" height="178.68" transform="translate(-406.77 902.24) rotate(-33.98)"/><rect class="cls-2" x="1308.95" y="787.68" width="639.86" height="178.68" transform="translate(-212.01 1060.13) rotate(-33.98)"/><rect class="cls-3" x="1562.65" y="616.68" width="639.86" height="178.68" transform="translate(-73.12 1172.72) rotate(-33.98)"/><rect class="cls-1" x="1152.17" y="1061.84" width="639.86" height="178.68" transform="translate(-392.01 1019.32) rotate(-33.98)"/><rect class="cls-2" x="1507.93" y="822.07" width="639.86" height="178.68" transform="translate(-197.25 1177.21) rotate(-33.98)"/><rect class="cls-1" x="1231.01" y="1143.9" width="639.86" height="178.68" transform="translate(-424.41 1077.4) rotate(-33.98)"/><rect class="cls-2" x="1586.77" y="904.13" width="639.86" height="178.68" transform="translate(-229.65 1235.28) rotate(-33.98)"/><rect class="cls-1" x="366.55" y="902.95" width="918.17" height="178.68" transform="translate(-413.6 630.88) rotate(-33.98)"/><rect class="cls-2" x="877.04" y="558.89" width="918.17" height="178.68" transform="matrix(0.83, -0.56, 0.56, 0.83, -134.13, 857.44)"/><rect class="cls-3" x="1241.1" y="313.52" width="918.17" height="178.68" transform="matrix(0.83, -0.56, 0.56, 0.83, 65.17, 1019.01)"/><rect class="cls-1" x="-118.06" y="907.67" width="1256.33" height="178.68" transform="translate(-470.12 455.34) rotate(-33.98)"/><rect class="cls-2" x="580.44" y="436.9" width="1256.33" height="178.68" transform="translate(-87.73 765.34) rotate(-33.98)"/><rect class="cls-3" x="1078.58" y="101.16" width="1256.33" height="178.68" transform="translate(184.97 986.42) rotate(-33.98)"/><rect class="cls-1" x="-361.73" y="780.34" width="1501.63" height="178.68" transform="translate(-419.62 365.96) rotate(-33.98)"/><rect class="cls-2" x="473.15" y="217.64" width="1501.63" height="178.68" transform="matrix(0.83, -0.56, 0.56, 0.83, 37.43, 736.49)"/><rect class="cls-3" x="1068.55" y="-183.65" width="1501.63" height="178.68" transform="translate(363.38 1000.73) rotate(-33.98)"/><rect class="cls-1" x="-279.53" y="481.45" width="1001.08" height="178.68" transform="translate(-281.27 220.99) rotate(-33.98)"/><rect class="cls-2" x="277.05" y="106.32" width="1001.08" height="178.68" transform="translate(23.43 468) rotate(-33.98)"/><rect class="cls-3" x="673.98" y="-161.21" width="1001.08" height="178.68" transform="translate(240.73 644.16) rotate(-33.98)"/><rect class="cls-1" x="-247.41" y="626.08" width="1144.94" height="178.68" transform="translate(-344.34 303.84) rotate(-33.98)"/><rect class="cls-2" x="389.16" y="197.05" width="1144.94" height="178.68" transform="translate(4.15 586.35) rotate(-33.98)"/><rect class="cls-3" x="843.13" y="-108.92" width="1144.94" height="178.68" transform="translate(252.67 787.82) rotate(-33.98)"/></svg>