<svg id="Layer_1" data-name="Layer 1" xmlns="http://www.w3.org/2000/svg" viewBox="0 0 310.85 109.65"><defs><style>.cls-1{fill:#f9f9f9;}.cls-2{fill:#fff;stroke:#fff;stroke-miterlimit:10;}.cls-3{fill:#2c3c8a;}</style></defs><title>Untitled-1</title><path class="cls-1" d="M458.37,349.8V336.52H469v-2.41H458.37v-6h13.28L477,332.9v8.45H466.33v2.42H477v6Z" transform="translate(-248.37 -240.15)"/><path class="cls-1" d="M481.33,349.8V332.9l5.3-4.83h15.94V349.8Zm13.28-6v-9.66h-5.32v9.66Z" transform="translate(-248.37 -240.15)"/><path class="cls-1" d="M507,349.8V336.52h10.61v-2.41H507v-6h13.27l5.32,4.83v8.45H514.91v2.42h10.63v6Z" transform="translate(-248.37 -240.15)"/><path class="cls-1" d="M529.91,349.8V332.9l5.3-4.83h15.94V349.8Zm13.28-6v-9.66h-5.32v9.66Z" transform="translate(-248.37 -240.15)"/><polygon class="cls-2" points="0.51 14.38 24 14.38 36.44 31.63 36.44 14.06 60.38 14.06 64.57 21.19 64.57 14.06 99.88 14.06 116.75 28.25 116.75 0.5 140.94 0.5 145.57 9.75 145.57 26 157.88 13.69 189.57 13.69 190.25 14.38 190.25 26.94 198.88 13.56 245 13.56 256.5 24.31 262.88 13.56 297.69 13.56 310.35 26.22 310.35 67.06 301.38 79.06 253.75 79.06 253.75 74.56 249.16 79.16 192.38 79.16 192.38 75 188.13 79.25 160.32 79.25 155.75 74.69 150.13 74.69 150.13 78.81 124.19 78.81 121.13 73.94 121.13 78.81 74.07 78.81 70.94 74.25 66.35 78.84 25.07 78.84 0.9 54.67 0.51 14.38"/><path class="cls-3" d="M265.68,305.79l-12.66-11V256h19v33.17h19V256h19v38.71l-12.68,11Z" transform="translate(-248.37 -240.15)"/><path class="cls-3" d="M317,305.79V256h31.68l12.68,11.06v38.69h-19V272.62H336v33.17Z" transform="translate(-248.37 -240.15)"/><path class="cls-3" d="M368.36,250.52v-8.3h19v8.3Zm0,55.27V256h19v49.75Z" transform="translate(-248.37 -240.15)"/><path class="cls-3" d="M407,305.79l-12.66-11V267.1L407,256h28.53v16.58H413.35v16.59h22.18v16.58Z" transform="translate(-248.37 -240.15)"/><path class="cls-3" d="M445.67,305.79V256H490l12.67,11.06v38.69Zm38-16.58V272.62h-19v16.59Z" transform="translate(-248.37 -240.15)"/><path class="cls-3" d="M509.68,305.79V256h31.69l12.68,11.06v38.69H535V272.62h-6.33v33.17Z" transform="translate(-248.37 -240.15)"/></svg>