<svg id="Layer_1" data-name="Layer 1" xmlns="http://www.w3.org/2000/svg" viewBox="0 0 312.65 114.47"><defs><style>.cls-1{font-size:28.98px;fill:#f9f9f9;letter-spacing:0.05em;}.cls-1,.cls-3{font-family:Twitchy.TV, Twitchy.TV;}.cls-2{fill:#fff;stroke:#fff;stroke-miterlimit:10;}.cls-3{font-size:66.34px;fill:#2c3c8a;}</style></defs><title>unicon_logo</title><text class="cls-1" transform="translate(210 109.65)">2020</text><polygon class="cls-2" points="0.51 14.38 24 14.38 36.44 31.63 36.44 14.06 60.38 14.06 64.57 21.19 64.57 14.06 99.88 14.06 116.75 28.25 116.75 0.5 140.94 0.5 145.57 9.75 145.57 26 157.88 13.69 189.57 13.69 190.25 14.38 190.25 26.94 198.88 13.56 245 13.56 256.5 24.31 262.88 13.56 297.69 13.56 310.35 26.22 310.35 67.06 301.38 79.06 253.75 79.06 253.75 74.56 249.16 79.16 192.38 79.16 192.38 75 188.13 79.25 160.32 79.25 155.75 74.69 150.13 74.69 150.13 78.81 124.19 78.81 121.13 73.94 121.13 78.81 74.07 78.81 70.94 74.25 66.35 78.84 25.07 78.84 0.9 54.67 0.51 14.38"/><text class="cls-3" transform="translate(4.65 65.64) scale(1.04 1)">UNICON</text></svg>
