<svg id="Layer_1" data-name="Layer 1" xmlns="http://www.w3.org/2000/svg" viewBox="0 0 400.19 182.42"><defs><style>.cls-1,.cls-4{fill:#fff;}.cls-1{stroke:#fff;stroke-miterlimit:10;}.cls-2{fill:#2c3c8a;}.cls-3{fill:#31b7bd;}</style></defs><title>unicon2019_logo</title><polygon class="cls-1" points="0.51 18.38 30.78 18.38 46.8 40.6 46.8 17.97 77.64 17.97 83.04 27.15 83.04 17.97 128.53 17.97 150.28 36.25 150.28 0.5 181.44 0.5 187.4 12.42 187.4 33.35 203.26 17.49 244.08 17.49 244.97 18.38 244.97 34.56 256.08 17.33 315.51 17.33 330.32 31.18 338.54 17.33 383.39 17.33 399.69 33.63 399.69 86.26 388.14 101.72 326.78 101.72 326.78 95.92 320.86 101.84 247.71 101.84 247.71 96.48 242.23 101.96 206.4 101.96 200.52 96.08 193.28 96.08 193.28 101.39 159.86 101.39 155.91 95.11 155.91 101.39 95.28 101.39 91.25 95.52 85.33 101.44 32.15 101.44 1.01 70.29 0.51 18.38"/><path class="cls-2" d="M85.81,306,69.49,291.74V241.87H94v42.74h24.49V241.87H143v49.87L126.65,306Z" transform="translate(-63.65 -221.55)"/><path class="cls-2" d="M152,306V241.87h40.82l16.34,14.25V306H184.61V263.24h-8.16V306Z" transform="translate(-63.65 -221.55)"/><path class="cls-2" d="M218.1,234.76V224.07h24.49v10.69Zm0,71.22V241.87h24.49V306Z" transform="translate(-63.65 -221.55)"/><path class="cls-2" d="M267.88,306l-16.31-14.24V256.12l16.31-14.25h36.75v21.37H276.06v21.37h28.57V306Z" transform="translate(-63.65 -221.55)"/><path class="cls-2" d="M317.7,306V241.87h57.16l16.33,14.25V306Zm49-21.37V263.24H342.19v21.37Z" transform="translate(-63.65 -221.55)"/><path class="cls-2" d="M400.17,306V241.87H441l16.34,14.25V306H432.82V263.24h-8.16V306Z" transform="translate(-63.65 -221.55)"/><polygon class="cls-3" points="200.1 182.42 249.83 118.53 391.07 118.53 391.07 182.42 200.1 182.42"/><path class="cls-4" d="M309.13,391.81a1.32,1.32,0,0,1-.41-1v-4.12a3.37,3.37,0,0,1,1.37-2.75l5.12-5q5.22-4,7.89-6.16a27.18,27.18,0,0,0,4.07-4,5.64,5.64,0,0,0,1.4-3.39q0-4.06-4.07-4.07a4.17,4.17,0,0,0-3.3,1.3,6.7,6.7,0,0,0-1.54,3.21,1.68,1.68,0,0,1-1.87,1.27h-7.26a1.16,1.16,0,0,1-.85-.36,1.1,1.1,0,0,1-.36-.8,12.51,12.51,0,0,1,2-6.57,13.24,13.24,0,0,1,5.31-4.67A17,17,0,0,1,324.5,353a19.63,19.63,0,0,1,8,1.49,10.87,10.87,0,0,1,6.82,10.45,11.47,11.47,0,0,1-2.45,7.15A38.92,38.92,0,0,1,329.4,379l-4.57,4.56h13.92a1.32,1.32,0,0,1,1.37,1.38v5.88a1.41,1.41,0,0,1-.38,1,1.32,1.32,0,0,1-1,.41H310.09A1.32,1.32,0,0,1,309.13,391.81Z" transform="translate(-63.65 -221.55)"/><path class="cls-4" d="M349.75,388.75a15.51,15.51,0,0,1-4.35-10.45c-.07-2-.11-3.76-.11-5.33s0-3.45.11-5.5a16.29,16.29,0,0,1,2.06-7.34A13.06,13.06,0,0,1,352.8,355a17.75,17.75,0,0,1,8.49-1.87,18,18,0,0,1,8.53,1.87,13,13,0,0,1,5.36,5.09,16.3,16.3,0,0,1,2.07,7.34c.07,1,.11,2.86.11,5.5s0,4.34-.11,5.33a15.51,15.51,0,0,1-4.35,10.45q-4,4-11.61,4C356.24,392.73,352.38,391.39,349.75,388.75Zm15.4-6a8.3,8.3,0,0,0,1.37-4.76c.07-1.07.11-2.79.11-5.17s0-4.07-.11-5.06a8.34,8.34,0,0,0-1.37-4.7,4.46,4.46,0,0,0-3.86-1.74c-3.29,0-5,2.15-5.22,6.44,0,1-.06,2.67-.06,5.06s0,4.1.06,5.17c.18,4.29,1.93,6.43,5.22,6.43A4.55,4.55,0,0,0,365.15,382.79Z" transform="translate(-63.65 -221.55)"/><path class="cls-4" d="M394.43,391.81a1.36,1.36,0,0,1-.41-1V365.1l-7.37,5.67a1.59,1.59,0,0,1-.82.27,1.42,1.42,0,0,1-1.16-.66l-3.41-4.4a1.58,1.58,0,0,1-.22-.82,1.39,1.39,0,0,1,.61-1.21l12.76-9.85a2.16,2.16,0,0,1,1.26-.38h7.26a1.48,1.48,0,0,1,1,.38,1.32,1.32,0,0,1,.41,1v35.75a1.29,1.29,0,0,1-.41,1,1.44,1.44,0,0,1-1,.39H395.4A1.36,1.36,0,0,1,394.43,391.81Z" transform="translate(-63.65 -221.55)"/><path class="cls-4" d="M416.51,391.86a1.21,1.21,0,0,1-.33-.85,1.26,1.26,0,0,1,.23-.72l7.69-10.5a5.17,5.17,0,0,1-1.48.11,15.58,15.58,0,0,1-6.38-1.84,13.41,13.41,0,0,1-4.92-4.51,11.69,11.69,0,0,1-1.9-6.58,13.24,13.24,0,0,1,1.84-6.79,13.51,13.51,0,0,1,5.45-5.09,18.19,18.19,0,0,1,8.66-1.92,20.17,20.17,0,0,1,8.8,1.76,12.86,12.86,0,0,1,5.58,4.81,12.68,12.68,0,0,1,1.9,6.85,12.27,12.27,0,0,1-1.24,5.53A40.1,40.1,0,0,1,436.7,378l-1,1.38-8.63,11.77a2.36,2.36,0,0,1-2,1.1h-7.75A1.1,1.1,0,0,1,416.51,391.86Zm13-20.93a5.88,5.88,0,0,0,0-8,6.08,6.08,0,0,0-7.95,0,6,6,0,0,0,0,8,6.13,6.13,0,0,0,8,0Z" transform="translate(-63.65 -221.55)"/></svg>